<?xml version="1.0" encoding="utf-8"?>
<!-- Generator: Adobe Illustrator 22.1.0, SVG Export Plug-In . SVG Version: 6.00 Build 0)  -->
<svg version="1.1" id="レイヤー_1" xmlns="http://www.w3.org/2000/svg" xmlns:xlink="http://www.w3.org/1999/xlink" x="0px"
	 y="0px" width="154.5px" height="66.7px" viewBox="0 0 154.5 66.7" style="enable-background:new 0 0 154.5 66.7;"
	 xml:space="preserve">
<style type="text/css">
	.st0{fill:#ED7FAF;}
	.st1{fill:#F9D2E3;}
	.st2{fill:#595757;}
</style>
<g>
	<g>
		<g>
			<path class="st0" d="M62.6,21.4c0,0.1,0,0.1,0,0.2c0,0,0,0.1,0,0.2c0,0.3,0,0.5,0.1,0.7c0.1,0.2,0.2,0.3,0.3,0.4
				c0.1,0.1,0.3,0.2,0.5,0.2c0.2,0.1,0.4,0.1,0.6,0.1c0.2,0,0.4,0,0.6-0.1c0.2-0.1,0.4-0.2,0.5-0.3c0.2-0.1,0.3-0.3,0.4-0.5
				c0.1-0.2,0.1-0.4,0.1-0.6c0-0.2,0-0.3-0.1-0.4c0-0.1-0.1-0.2-0.2-0.4c-0.1-0.1-0.2-0.2-0.3-0.3c-0.1-0.1-0.2-0.2-0.3-0.3
				c-0.1-0.1-0.2-0.2-0.4-0.2c-0.1-0.1-0.3-0.1-0.4-0.2c-0.1-0.1-0.3-0.2-0.4-0.2c-0.1-0.1-0.3-0.2-0.4-0.3
				c-0.1-0.1-0.3-0.2-0.4-0.3c-0.1-0.1-0.2-0.2-0.3-0.4c-0.1-0.1-0.1-0.3-0.2-0.4c0-0.2-0.1-0.3-0.1-0.5c0-0.2,0-0.5,0.1-0.7
				c0.1-0.2,0.1-0.4,0.3-0.6c0.1-0.2,0.2-0.3,0.4-0.5c0.2-0.1,0.3-0.3,0.5-0.3c0.2-0.1,0.4-0.2,0.6-0.2c0.2,0,0.4-0.1,0.6-0.1
				c0.1,0,0.2,0,0.3,0c0.1,0,0.2,0,0.3,0.1c0.1,0,0.2,0.1,0.3,0.1c0.1,0,0.2,0.1,0.3,0.1c0.1,0,0.1,0.1,0.2,0.2
				c0,0.1,0.1,0.1,0.1,0.2c0,0.1,0,0.1,0,0.2c0,0.1,0,0.2,0,0.3c0,0.1,0,0.3,0,0.4c0,0.1,0,0.3,0,0.5l-0.3,0c0-0.1,0-0.2,0-0.2
				c0-0.2,0-0.4-0.1-0.6c-0.1-0.2-0.2-0.3-0.3-0.4c-0.1-0.1-0.3-0.2-0.4-0.3c-0.2-0.1-0.4-0.1-0.6-0.1c-0.2,0-0.4,0-0.6,0.1
				c-0.2,0.1-0.3,0.2-0.5,0.3c-0.1,0.1-0.2,0.3-0.3,0.4c-0.1,0.2-0.1,0.4-0.1,0.6c0,0.2,0,0.3,0.1,0.5c0,0.1,0.1,0.3,0.2,0.4
				c0.1,0.1,0.2,0.2,0.3,0.3c0.1,0.1,0.2,0.2,0.3,0.3c0.1,0.1,0.3,0.2,0.4,0.2c0.1,0.1,0.3,0.2,0.4,0.2c0.1,0.1,0.3,0.2,0.4,0.2
				c0.1,0.1,0.3,0.2,0.4,0.3c0.1,0.1,0.3,0.2,0.4,0.3c0.1,0.1,0.2,0.2,0.3,0.4c0.1,0.1,0.1,0.3,0.2,0.4c0,0.2,0.1,0.3,0.1,0.5
				c0,0.3,0,0.6-0.1,0.8c-0.1,0.2-0.2,0.5-0.3,0.6c-0.1,0.2-0.3,0.3-0.5,0.5c-0.2,0.1-0.4,0.2-0.6,0.3c-0.2,0.1-0.4,0.1-0.6,0.2
				c-0.2,0-0.4,0-0.6,0c-0.2,0-0.4,0-0.6,0c-0.2,0-0.4-0.1-0.5-0.1c-0.1,0-0.3-0.1-0.4-0.2c-0.1-0.1-0.1-0.1-0.1-0.2
				c0-0.2,0-0.4,0-0.7c0-0.3,0-0.6,0-1L62.6,21.4z"/>
			<path class="st0" d="M75.1,16.6c0-0.1,0-0.2,0-0.3c0-0.1,0-0.1-0.1-0.2c0,0-0.1-0.1-0.2-0.1c-0.1,0-0.2,0-0.3,0
				c-0.2,0-0.3,0-0.6,0.1l0-0.3c0.3-0.1,0.6-0.1,0.8-0.2c0.2,0,0.4-0.1,0.6-0.1c0.2,0,0.3,0,0.4,0.1c0.1,0,0.2,0.1,0.2,0.2
				c0,0.1,0.1,0.2,0.1,0.3c0,0.1,0,0.2,0,0.4c0,0,0,0.1,0,0.3c0,0.1,0,0.3,0,0.5c0,0.2,0,0.5,0,0.7c0,0.3,0,0.6,0,0.9
				c0,0.3,0,0.7,0,1c0,0.4,0,0.7,0,1.1c0,0.4,0,0.8,0,1.2c0,0.4,0,0.8,0,1.2L75,23.5l-0.1,0c0-0.7,0.1-1.3,0.1-1.9
				c0-0.6,0-1.2,0.1-1.7c0-0.6,0-1.1,0-1.6C75.1,17.7,75.1,17.2,75.1,16.6z M76.8,19.1c0.3,0.5,0.5,0.9,0.8,1.3
				c0.2,0.4,0.4,0.7,0.6,0.9c0.2,0.3,0.4,0.5,0.5,0.7c0.2,0.2,0.3,0.3,0.4,0.5c0.1,0.1,0.2,0.2,0.3,0.2c0.1,0.1,0.2,0.1,0.2,0.2
				c0.1,0,0.2,0.1,0.2,0.1c0.1,0,0.1,0,0.2,0c0.1,0,0.2,0,0.3,0c0.1,0,0.2-0.1,0.3-0.1l0.1,0.3c-0.2,0.1-0.3,0.1-0.5,0.2
				c-0.1,0.1-0.3,0.1-0.4,0.1c-0.1,0-0.2,0.1-0.3,0.1c-0.1,0-0.2,0-0.3,0c-0.1,0-0.2,0-0.2,0c-0.1,0-0.1,0-0.2-0.1
				c-0.1,0-0.1-0.1-0.2-0.1c-0.1-0.1-0.1-0.1-0.2-0.2c-0.1-0.1-0.3-0.3-0.4-0.5c-0.2-0.2-0.4-0.4-0.6-0.7c-0.2-0.3-0.4-0.7-0.7-1.1
				c-0.3-0.4-0.5-0.9-0.8-1.4l0,0l0.3-0.4c0.4-0.5,0.7-1,1-1.5c0.3-0.4,0.6-0.8,0.9-1.1c0.3-0.3,0.5-0.6,0.8-0.7
				c0.3-0.2,0.5-0.3,0.7-0.3c0.1,0,0.2,0,0.3,0c0.1,0,0.1,0.1,0.2,0.1c0.1,0,0.1,0.1,0.1,0.2c0,0.1,0,0.1,0,0.2c0,0.1,0,0.2-0.1,0.3
				c-0.1,0.1-0.1,0.2-0.2,0.3h0c-0.1-0.1-0.2-0.2-0.3-0.2c-0.1,0-0.2-0.1-0.3-0.1c-0.2,0-0.4,0.1-0.6,0.2c-0.2,0.1-0.4,0.3-0.7,0.6
				c-0.2,0.2-0.5,0.5-0.7,0.9C77.3,18.4,77,18.7,76.8,19.1z"/>
			<path class="st0" d="M87.4,15.6c0,0.5-0.1,1-0.1,1.5c0,0.5-0.1,0.9-0.1,1.3c0,0.4,0,0.9,0,1.3c0,0.4,0,0.9,0,1.3
				c0,0.3,0,0.6,0,0.9c0,0.3,0,0.5,0.1,0.6c0,0.2,0.1,0.3,0.2,0.4c0.1,0.1,0.2,0.1,0.4,0.1c0.1,0,0.2,0,0.3,0c0.1,0,0.2-0.1,0.4-0.1
				l0.1,0.3c-0.1,0.1-0.3,0.1-0.4,0.2c-0.1,0.1-0.3,0.1-0.4,0.1c-0.1,0-0.2,0.1-0.4,0.1c-0.1,0-0.2,0-0.3,0c-0.2,0-0.3,0-0.4-0.1
				c-0.1-0.1-0.2-0.2-0.3-0.3c-0.1-0.1-0.1-0.3-0.1-0.4c0-0.2,0-0.4,0-0.6c0-0.2,0-0.5,0-0.7c0-0.3,0-0.5,0-0.8l0,0
				c-0.1,0.2-0.2,0.4-0.3,0.7c-0.1,0.2-0.2,0.5-0.4,0.7c-0.1,0.2-0.3,0.4-0.4,0.6c-0.2,0.2-0.3,0.4-0.5,0.5
				c-0.2,0.1-0.4,0.3-0.6,0.3c-0.2,0.1-0.5,0.1-0.7,0.1c-0.3,0-0.5,0-0.7-0.1c-0.2-0.1-0.4-0.2-0.5-0.3c-0.1-0.1-0.3-0.3-0.3-0.5
				c-0.1-0.2-0.2-0.4-0.2-0.6c-0.1-0.2-0.1-0.4-0.1-0.7c0-0.2,0-0.5,0-0.7c0-0.3,0-0.5,0-0.8c0-0.3,0-0.6,0.1-0.9
				c0-0.3,0.1-0.6,0.1-0.8c0-0.3,0.1-0.5,0.1-0.8c0-0.2,0-0.4,0.1-0.6c0-0.2,0-0.3,0-0.4c0-0.1,0-0.1,0-0.2c0-0.1,0-0.1-0.1-0.1
				c0,0-0.1-0.1-0.2-0.1c-0.1,0-0.2,0-0.3,0c-0.1,0-0.2,0-0.3,0c-0.1,0-0.2,0-0.3,0l0-0.3c0.3-0.1,0.6-0.1,0.9-0.2
				c0.2,0,0.4-0.1,0.6-0.1c0.1,0,0.2,0,0.3,0c0.1,0,0.1,0.1,0.2,0.1c0,0,0.1,0.1,0.1,0.2c0,0.1,0,0.2,0,0.3c0,0.1,0,0.2,0,0.3
				c0,0.2,0,0.4-0.1,0.6c0,0.2-0.1,0.5-0.1,0.8c0,0.3-0.1,0.6-0.1,0.9c0,0.3-0.1,0.6-0.1,0.9c0,0.3,0,0.6,0,0.9c0,0.2,0,0.4,0,0.5
				c0,0.2,0,0.4,0.1,0.5c0,0.2,0.1,0.3,0.1,0.5c0.1,0.1,0.1,0.3,0.2,0.4c0.1,0.1,0.2,0.2,0.4,0.3c0.1,0.1,0.3,0.1,0.5,0.1
				c0.2,0,0.5-0.1,0.7-0.2c0.2-0.1,0.4-0.2,0.6-0.4c0.2-0.2,0.4-0.4,0.5-0.7c0.2-0.3,0.3-0.5,0.4-0.8c0.1-0.3,0.2-0.6,0.3-1
				c0.1-0.3,0.1-0.7,0.1-1.1c0-0.1,0-0.3,0-0.4c0-0.1,0-0.3,0-0.4c0-0.1,0-0.3,0-0.4c0-0.1,0-0.3,0-0.5c0-0.2,0-0.4,0-0.5
				c0-0.2,0-0.4,0-0.6c0,0,0-0.1,0-0.1c0,0,0.1-0.1,0.1-0.1c0,0,0.1,0,0.1-0.1c0.1,0,0.1,0,0.2,0c0.1,0,0.1,0,0.2,0
				C87.2,15.6,87.3,15.6,87.4,15.6z"/>
			<path class="st0" d="M89.6,16.6c0-0.1,0-0.2,0-0.2c0-0.1,0-0.1-0.1-0.2c0,0-0.1-0.1-0.2-0.1c-0.1,0-0.2,0-0.3,0
				c-0.2,0-0.3,0-0.6,0.1l0-0.3c0.2,0,0.4-0.1,0.7-0.1c0.3,0,0.5-0.1,0.8-0.1c0.3,0,0.5-0.1,0.8-0.1c0.3,0,0.5,0,0.8,0
				c0.3,0,0.6,0,0.9,0.1c0.3,0.1,0.5,0.2,0.7,0.3c0.2,0.1,0.4,0.3,0.5,0.5c0.1,0.2,0.2,0.5,0.2,0.8c0,0.3,0,0.6-0.1,0.8
				c-0.1,0.3-0.2,0.5-0.4,0.7c-0.2,0.2-0.4,0.4-0.7,0.5c-0.3,0.1-0.5,0.3-0.9,0.3c0.2,0.4,0.5,0.8,0.6,1.1c0.2,0.3,0.4,0.6,0.5,0.8
				c0.2,0.2,0.3,0.4,0.4,0.6c0.1,0.2,0.3,0.3,0.4,0.4c0.1,0.1,0.2,0.2,0.3,0.2c0.1,0.1,0.2,0.1,0.2,0.2c0.1,0,0.2,0.1,0.2,0.1
				c0.1,0,0.2,0,0.2,0c0.1,0,0.2,0,0.3,0c0.1,0,0.2,0,0.3-0.1l0.1,0.3c-0.3,0.1-0.5,0.2-0.8,0.3c-0.2,0.1-0.4,0.1-0.6,0.1
				c-0.1,0-0.1,0-0.2,0c-0.1,0-0.1,0-0.2-0.1c-0.1,0-0.1-0.1-0.2-0.1c-0.1-0.1-0.1-0.1-0.2-0.2c-0.1-0.1-0.3-0.3-0.4-0.5
				c-0.2-0.2-0.3-0.5-0.5-0.8c-0.2-0.3-0.4-0.7-0.7-1.1c-0.2-0.4-0.5-0.9-0.8-1.4l0,0c0.4,0,0.7-0.1,1-0.2c0.3-0.1,0.5-0.2,0.7-0.4
				c0.2-0.2,0.3-0.4,0.4-0.6c0.1-0.2,0.1-0.5,0.1-0.8c0-0.5-0.1-0.9-0.4-1.2c-0.3-0.3-0.7-0.4-1.3-0.4c-0.1,0-0.2,0-0.3,0
				c-0.1,0-0.2,0-0.4,0c0,0.2,0,0.4,0,0.7c0,0.3,0,0.6,0,1c0,0.4,0,0.8,0,1.3c0,0.5,0,0.9,0,1.4c0,0.5,0,1,0,1.5c0,0.5,0,1,0,1.6
				l-0.8,0.1l-0.1,0c0-0.7,0.1-1.3,0.1-1.9c0-0.6,0-1.2,0.1-1.7c0-0.6,0-1.1,0-1.7C89.6,17.7,89.6,17.2,89.6,16.6z"/>
			<g>
				<path class="st0" d="M74.1,22.9c-0.1,0-0.2,0.1-0.3,0.1c-0.1,0-0.2,0-0.2,0c-0.1,0-0.2,0-0.3-0.1c-0.1,0-0.2-0.1-0.3-0.2
					c-0.1-0.1-0.2-0.2-0.3-0.4c-0.1-0.2-0.2-0.4-0.3-0.7c0-0.2-0.2-0.8-0.3-0.9c-0.1-0.4-0.2-0.8-0.3-1.3c-0.1-0.5-0.2-1.1-0.3-1.7
					c-0.1-0.6-0.3-1.3-0.4-2.1c-0.1,0-0.1-0.1-0.2-0.1c-0.1,0-0.1,0-0.2,0c0,0-0.1,0-0.1,0c0,0-0.1,0-0.1,0c0,0-0.1,0-0.1,0.1
					c0,0-0.1,0.1-0.1,0.1c-0.2,0.5-0.5,1.1-0.9,1.8c-0.3,0.7-1.7,3.8-2,4.3c-0.2,0.5-0.5,1.1-0.8,1.7l0,0c0,0,0.1,0,0.2,0
					c0.1,0,0.1,0,0.1,0c0.1,0,0.1,0,0.2,0c0.1,0,0.1,0,0.2,0c0.1,0,0.1-0.1,0.1-0.1c0,0,0.1-0.1,0.1-0.2c0-0.1,0.1-0.1,0.1-0.2
					c0,0,0,0,0,0c0.3-0.8,1.6-4.2,1.8-4.7c0.3-0.6,0.6-1.3,0.9-1.9h0c0.1,0.3,0.1,0.7,0.2,1c0.1,0.3,0.1,0.7,0.2,1
					c0.1,0.3,0.1,0.6,0.2,0.9c0,0.2,0.7,3,0.8,3.2c0.1,0.2,0.2,0.4,0.2,0.6c0.1,0.2,0.2,0.3,0.3,0.4c0.1,0.1,0.2,0.2,0.3,0.2
					c0.1,0,0.2,0.1,0.3,0.1c0.2,0,0.4,0,0.6-0.1c0.2-0.1,0.5-0.2,0.8-0.3L74.1,22.9z"/>
			</g>
			<path class="st1" d="M70.6,23.2c0,0,0-0.5-0.8-0.9c-0.8-0.4-1.6-0.8-1.8-1.7c-0.1-0.6-0.1-0.7,0.2-0.8c0.3-0.1,0.4,0.2,0.5,0
				c0.1-0.2-0.3-0.5-0.1-0.7c0.3-0.2,1.7-0.1,2.2,0.8c0.5,0.9,0.5,1.7,0.4,2.2C71.2,22.7,70.6,23.2,70.6,23.2z"/>
			<g>
				<path class="st0" d="M102.2,22.8c-0.1,0-0.2,0.1-0.3,0.1c-0.1,0-0.2,0-0.2,0c-0.1,0-0.2,0-0.3-0.1c-0.1,0-0.2-0.1-0.3-0.2
					c-0.1-0.1-0.2-0.2-0.3-0.4c-0.1-0.2-0.2-0.4-0.3-0.7c0-0.2-0.2-0.8-0.3-0.9c-0.1-0.4-0.2-0.8-0.3-1.3c-0.1-0.5-0.2-1.1-0.3-1.7
					c-0.1-0.6-0.3-1.3-0.4-2.1c-0.1,0-0.1-0.1-0.2-0.1c-0.1,0-0.1,0-0.2,0c0,0-0.1,0-0.1,0c0,0-0.1,0-0.1,0c0,0-0.1,0-0.1,0.1
					c0,0-0.1,0.1-0.1,0.1c-0.2,0.5-0.5,1.1-0.9,1.8c-0.3,0.7-1.7,3.8-2,4.3c-0.2,0.5-0.5,1.1-0.8,1.7l0,0c0,0,0.1,0,0.2,0
					c0.1,0,0.1,0,0.1,0c0.1,0,0.1,0,0.2,0c0.1,0,0.1,0,0.2,0c0.1,0,0.1-0.1,0.1-0.1c0,0,0.1-0.1,0.1-0.2c0-0.1,0.1-0.1,0.1-0.2
					c0,0,0,0,0,0c0.3-0.8,1.6-4.2,1.8-4.7c0.3-0.6,0.6-1.3,0.9-1.9h0c0.1,0.3,0.1,0.7,0.2,1c0.1,0.3,0.1,0.7,0.2,1
					c0.1,0.3,0.1,0.6,0.2,0.9c0,0.2,0.7,3,0.8,3.2c0.1,0.2,0.2,0.4,0.2,0.6c0.1,0.2,0.2,0.3,0.2,0.4c0.1,0.1,0.2,0.2,0.3,0.2
					c0.1,0,0.2,0.1,0.3,0.1c0.2,0,0.4,0,0.6-0.1c0.2-0.1,0.5-0.2,0.8-0.3L102.2,22.8z"/>
			</g>
			<path class="st1" d="M98.7,23.1c0,0,0-0.5-0.8-0.9c-0.8-0.4-1.6-0.8-1.8-1.7C96,20,96,19.8,96.3,19.7c0.3-0.1,0.4,0.2,0.5,0
				c0.1-0.2-0.3-0.5-0.1-0.7c0.3-0.2,1.7-0.1,2.2,0.8c0.5,0.9,0.5,1.7,0.4,2.2C99.3,22.6,98.7,23.1,98.7,23.1z"/>
		</g>
		<g>
			<path class="st0" d="M28.3,26.2c0,0,2.8-1.8,2.5-6.9c-0.3-5.1-0.4-10.4,3.4-14c2.5-2.3,3.5-2.8,4.8-1.7c1.3,1.1,0.1,2.6,1.3,2.6
				c1.3,0.1,1.6-3.3,3.2-2.5c1.6,0.7,5.4,8,2.6,13.2c-2.8,5.2-6.9,7.9-10.1,9.1C32.7,27.3,28.3,26.2,28.3,26.2z"/>
			<path class="st0" d="M31.2,30.1c0,0,2.6,1.8,7-0.6c4.5-2.4,9.2-4.6,13.7-2.7c3,1.3,3.8,2,3.3,3.6c-0.5,1.6-2.3,1.1-1.9,2.3
				c0.4,1.2,3.5,0.1,3.4,1.8c-0.1,1.7-5.1,8.1-10.8,7.7c-5.7-0.4-9.5-2.9-11.8-5.3C31.9,34.5,31.2,30.1,31.2,30.1z"/>
			<path class="st0" d="M28.8,32.3c0,0-0.6,3.1,3.3,6.2c3.9,3.2,7.8,6.7,7.8,11.6c0,3.2-0.4,4.3-2,4.4c-1.7,0.1-1.9-1.7-2.8-0.8
				c-0.9,0.8,1.3,3.3-0.3,3.9c-1.6,0.6-9.5-1.6-11.3-7c-1.8-5.4-1-9.9,0.3-13C25,34.7,28.8,32.3,28.8,32.3z"/>
			<path class="st0" d="M26.3,30.7c0,0-3.2,0.7-4.7,5.6c-1.5,4.9-3.2,9.9-8,12c-3.1,1.3-4.3,1.4-5.1,0c-0.8-1.5,0.8-2.4-0.3-2.9
				c-1.2-0.5-2.6,2.5-3.8,1.3c-1.2-1.2-2.3-9.4,2.1-13.3c4.4-3.9,9.1-5,12.6-5.1C22.5,28.2,26.3,30.7,26.3,30.7z"/>
			<path class="st0" d="M25.5,28.4c0,0-1.2-2.9-6.2-3.3c-5-0.4-10.2-1.2-13-5.2C4.6,17.1,4.3,16,5.6,15c1.3-1.1,2.5,0.3,2.8-0.9
				c0.3-1.2-2.9-2-1.9-3.4c1-1.4,8.8-4,13.3-0.6c4.5,3.4,6.4,7.7,7,10.9C27.4,24.3,25.5,28.4,25.5,28.4z"/>
		</g>
		<g>
			<path class="st0" d="M63.4,40.4c0,0.1,0,0.2,0,0.3c0,0.1,0,0.2,0,0.3c0,0.5,0.1,0.9,0.2,1.2c0.1,0.3,0.3,0.6,0.6,0.8
				c0.2,0.2,0.5,0.4,0.9,0.5c0.3,0.1,0.7,0.1,1.1,0.1c0.4,0,0.8-0.1,1.2-0.2c0.4-0.1,0.7-0.3,1-0.5c0.3-0.2,0.5-0.5,0.7-0.9
				c0.2-0.3,0.3-0.7,0.3-1.2c0-0.3,0-0.6-0.1-0.8c-0.1-0.2-0.2-0.5-0.3-0.7c-0.1-0.2-0.3-0.4-0.5-0.6c-0.2-0.2-0.4-0.3-0.6-0.5
				c-0.2-0.2-0.5-0.3-0.7-0.4c-0.2-0.1-0.5-0.3-0.8-0.4c-0.3-0.1-0.5-0.3-0.8-0.4c-0.3-0.2-0.5-0.3-0.8-0.5
				c-0.2-0.2-0.5-0.4-0.7-0.6c-0.2-0.2-0.4-0.4-0.5-0.7c-0.2-0.2-0.3-0.5-0.4-0.8c-0.1-0.3-0.1-0.6-0.1-1c0-0.5,0.1-0.9,0.2-1.3
				c0.1-0.4,0.3-0.7,0.5-1.1c0.2-0.3,0.5-0.6,0.7-0.9c0.3-0.3,0.6-0.5,0.9-0.6c0.3-0.2,0.7-0.3,1.1-0.4c0.4-0.1,0.8-0.1,1.2-0.1
				c0.2,0,0.4,0,0.6,0c0.2,0,0.4,0.1,0.6,0.1c0.2,0,0.4,0.1,0.6,0.2c0.2,0.1,0.4,0.1,0.5,0.2c0.1,0.1,0.3,0.2,0.4,0.3
				c0.1,0.1,0.1,0.2,0.1,0.3c0,0.1,0,0.3,0,0.5c0,0.2,0,0.4,0,0.6c0,0.2,0,0.5,0,0.8c0,0.3,0,0.6,0,0.9l-0.6,0c0-0.2,0-0.3,0-0.4
				c0-0.4-0.1-0.8-0.2-1.1c-0.1-0.3-0.3-0.6-0.5-0.8c-0.2-0.2-0.5-0.4-0.8-0.5c-0.3-0.1-0.7-0.2-1.1-0.2c-0.4,0-0.8,0.1-1.1,0.2
				c-0.3,0.1-0.6,0.3-0.9,0.5c-0.2,0.2-0.4,0.5-0.6,0.8c-0.1,0.3-0.2,0.7-0.2,1.1c0,0.3,0,0.6,0.1,0.8c0.1,0.3,0.2,0.5,0.3,0.7
				c0.1,0.2,0.3,0.4,0.5,0.6c0.2,0.2,0.4,0.3,0.6,0.5c0.2,0.2,0.5,0.3,0.7,0.4c0.3,0.1,0.5,0.3,0.8,0.4c0.3,0.1,0.5,0.3,0.8,0.4
				c0.3,0.1,0.5,0.3,0.8,0.5c0.2,0.2,0.5,0.4,0.7,0.5c0.2,0.2,0.4,0.4,0.5,0.7c0.2,0.2,0.3,0.5,0.4,0.8c0.1,0.3,0.1,0.6,0.1,1
				c0,0.6-0.1,1.1-0.2,1.5c-0.2,0.5-0.4,0.8-0.6,1.2c-0.3,0.3-0.6,0.6-0.9,0.8c-0.3,0.2-0.7,0.4-1.1,0.6c-0.4,0.1-0.7,0.2-1.1,0.3
				c-0.4,0.1-0.7,0.1-1,0.1c-0.4,0-0.8,0-1.2-0.1c-0.4-0.1-0.7-0.1-1-0.2c-0.3-0.1-0.5-0.2-0.7-0.3c-0.2-0.1-0.2-0.2-0.2-0.4
				c0-0.3,0-0.7,0-1.2c0-0.5,0-1.2,0.1-1.9L63.4,40.4z"/>
			<path class="st0" d="M79.3,29.2c0.6,0,1.1,0.1,1.5,0.2c0.5,0.1,0.9,0.2,1.2,0.4c0.3,0.1,0.6,0.3,0.8,0.5c0.2,0.2,0.3,0.3,0.3,0.5
				c0,0.3,0,0.7,0,1.1c0,0.5,0,1-0.1,1.7l-0.6,0c0-0.1,0-0.1,0-0.2c0-0.1,0-0.1,0-0.2c0-0.3,0-0.6-0.1-0.8c-0.1-0.3-0.2-0.5-0.3-0.8
				c-0.2-0.2-0.4-0.5-0.6-0.6c-0.2-0.2-0.5-0.3-0.8-0.5c-0.3-0.1-0.6-0.2-0.9-0.3c-0.3-0.1-0.6-0.1-1-0.1c-0.6,0-1.1,0.1-1.6,0.3
				c-0.5,0.2-0.9,0.4-1.2,0.7c-0.4,0.3-0.7,0.7-1,1.1c-0.3,0.4-0.5,0.9-0.7,1.4c-0.2,0.5-0.3,1-0.4,1.6c-0.1,0.6-0.1,1.1-0.1,1.7
				c0,0.7,0.1,1.3,0.2,1.9c0.1,0.6,0.3,1.1,0.5,1.6c0.2,0.5,0.5,0.9,0.7,1.3c0.3,0.4,0.6,0.7,1,1c0.4,0.3,0.7,0.5,1.2,0.6
				c0.4,0.1,0.9,0.2,1.3,0.2c0.3,0,0.7,0,1-0.1c0.3-0.1,0.7-0.2,1-0.3c0.4-0.2,0.7-0.3,1.1-0.6c0.4-0.2,0.7-0.5,1.1-0.8
				c0,0,0.1,0,0.1,0.1c0,0,0.1,0.1,0.1,0.1c0,0,0.1,0.1,0.1,0.1c0,0,0,0.1,0,0.1c0,0,0,0.1-0.1,0.1c-0.4,0.5-0.8,0.8-1.3,1.2
				c-0.4,0.3-0.9,0.6-1.3,0.8c-0.4,0.2-0.9,0.3-1.3,0.4c-0.4,0.1-0.9,0.1-1.3,0.1c-0.6,0-1.1-0.1-1.6-0.2c-0.5-0.2-1-0.4-1.5-0.7
				c-0.4-0.3-0.9-0.7-1.2-1.1c-0.4-0.4-0.7-0.9-0.9-1.4c-0.3-0.5-0.5-1.1-0.6-1.7c-0.1-0.6-0.2-1.3-0.2-2c0-0.7,0.1-1.3,0.2-2
				c0.1-0.7,0.3-1.3,0.6-1.9c0.3-0.6,0.6-1.2,1-1.7c0.4-0.5,0.9-1,1.4-1.4c0.5-0.4,1.1-0.7,1.8-0.9C77.8,29.3,78.5,29.2,79.3,29.2z"
				/>
			<path class="st0" d="M86.3,31.5c0-0.2,0-0.4,0-0.5c0-0.1-0.1-0.3-0.1-0.3c-0.1-0.1-0.2-0.2-0.3-0.2c-0.1,0-0.3-0.1-0.5-0.1
				c-0.1,0-0.3,0-0.5,0c-0.2,0-0.4,0-0.6,0.1L84.1,30c0.6-0.2,1.2-0.3,1.6-0.4c0.4-0.1,0.8-0.1,1.1-0.1c0.3,0,0.5,0,0.6,0.1
				c0.2,0.1,0.3,0.2,0.3,0.3c0.1,0.1,0.1,0.3,0.1,0.5c0,0.2,0,0.5,0,0.7c0,0.1,0,0.3,0,0.7c0,0.4,0,0.9,0,1.6c0,0.6,0,1.4-0.1,2.2
				c0,0.8-0.1,1.7-0.1,2.6c0,0.9-0.1,1.9-0.1,2.9c0,1-0.1,2-0.1,2.9l-1.5,0.2l-0.1,0c0.1-1.2,0.1-2.4,0.1-3.5c0-1.1,0.1-2.2,0.1-3.2
				c0-1,0.1-2.1,0.1-3.1C86.3,33.6,86.3,32.6,86.3,31.5z"/>
			<path class="st0" d="M92,31.5c0-0.2,0-0.3,0-0.5c0-0.1-0.1-0.2-0.2-0.3c-0.1-0.1-0.2-0.1-0.3-0.2c-0.1,0-0.3-0.1-0.5-0.1
				c-0.1,0-0.3,0-0.5,0c-0.2,0-0.4,0-0.6,0.1L89.9,30c0.4-0.1,0.8-0.1,1.2-0.2c0.4,0,0.7-0.1,1-0.1c0.3,0,0.6-0.1,0.9-0.1
				c0.3,0,0.5,0,0.8,0c0.7,0,1.3,0,1.9,0c0.6,0,1.1,0,1.6,0c0.5,0,0.8,0,1.1,0c0.3,0,0.5,0,0.6,0c0.2,0,0.3,0,0.4,0.1
				c0.1,0.1,0.2,0.2,0.2,0.4c0,0.1,0,0.2,0,0.4c0,0.2,0,0.5-0.1,0.8c0,0.3-0.1,0.6-0.1,0.9c0,0.3-0.1,0.6-0.1,0.9l-0.6,0
				c0-0.2,0-0.3,0-0.5c0-0.1,0-0.3,0-0.4c0-0.4,0-0.6-0.1-0.9c0-0.2-0.1-0.4-0.2-0.5c-0.1-0.1-0.3-0.2-0.5-0.3
				c-0.2,0-0.4-0.1-0.7-0.1c-0.4,0-0.8,0-1.1,0c-0.3,0-0.6,0-0.9,0h-0.3c-0.2,0-0.3,0-0.5,0c-0.2,0-0.4,0-0.6,0c0,0.4,0,0.7,0,1.2
				c0,0.4,0,0.9,0,1.4c0,0.5,0,1,0,1.6c0,0.6,0,1.1,0,1.7c0.5,0,1,0,1.5,0.1c0.4,0,0.8,0,1.2,0c0.4,0,0.8,0,1.2,0
				c0.3,0,0.7-0.1,1-0.1c0.1,0.2,0.1,0.4,0.1,0.5c0,0.1,0,0.2-0.1,0.3c-0.1,0.1-0.2,0.2-0.3,0.2c-0.1,0.1-0.3,0.1-0.5,0.1
				c-0.2,0-0.4,0-0.7,0c-0.4,0-0.9,0-1.5-0.1c-0.6,0-1.1-0.1-1.8-0.2c0,0.2,0,0.5,0,0.9c0,0.3,0,0.7,0,1.1c0,0.4,0,0.8-0.1,1.2
				c0,0.4,0,0.8-0.1,1.2c0,0.4,0,0.7-0.1,1c0,0.3-0.1,0.6-0.1,0.8c0.4-0.1,0.8-0.1,1.2-0.1c0.4,0,0.7,0,1.1,0c0.4,0,0.9,0,1.3,0
				c0.4,0,0.8,0,1.2,0c0.3,0,0.5,0,0.7-0.1c0.2-0.1,0.4-0.2,0.5-0.4c0.1-0.2,0.3-0.4,0.4-0.7c0.1-0.3,0.2-0.7,0.2-1.2l0.6,0
				c0,0.7-0.1,1.3-0.2,1.8c-0.1,0.5-0.2,0.8-0.4,1.1c-0.2,0.3-0.4,0.5-0.6,0.6c-0.2,0.1-0.5,0.2-0.8,0.2c-0.2,0-0.5,0-0.8-0.1
				c-0.3,0-0.6-0.1-0.9-0.1c-0.3-0.1-0.7-0.1-1.1-0.1c-0.4,0-0.8-0.1-1.2-0.1c-0.4,0-0.8,0-1.3,0.1c-0.5,0-0.9,0.1-1.4,0.2l-0.1,0
				c0.1-0.4,0.1-0.9,0.2-1.5c0-0.6,0.1-1.3,0.1-2c0-0.7,0.1-1.5,0.1-2.3c0-0.8,0-1.6,0.1-2.4c0-0.8,0-1.6,0-2.4
				C92,32.9,92,32.2,92,31.5z"/>
			<path class="st0" d="M105.1,30.6c0.2,0.3,0.4,0.7,0.7,1.2c0.2,0.4,0.5,0.9,0.8,1.4c0.3,0.5,0.6,1,0.9,1.5c0.3,0.5,0.6,1,0.9,1.5
				c0.3,0.5,0.6,1,0.9,1.5c0.3,0.5,0.6,1,0.9,1.4c0.3,0.5,0.6,0.9,0.8,1.3c0.3,0.4,0.5,0.8,0.7,1.1c0-1.1,0-2.2,0-3.1
				c0-0.9,0-1.8,0-2.5c0-0.8,0-1.4,0-2c0-0.6,0-1.1,0.1-1.5c0-0.4,0.1-0.8,0.1-1.1c0-0.3,0.1-0.6,0.1-0.8c0-0.2,0.1-0.3,0.2-0.4
				c0.1-0.1,0.2-0.2,0.2-0.3c0.1-0.1,0.2-0.1,0.3-0.1c0.1,0,0.2,0,0.3,0c0.3,0,0.6,0.1,0.9,0.2v0.1c-0.2,0.3-0.4,0.7-0.5,1.1
				c-0.2,0.5-0.3,1-0.4,1.6c-0.1,0.6-0.2,1.2-0.3,1.8c-0.1,0.6-0.1,1.3-0.2,1.9c0,0.6-0.1,1.2-0.1,1.8c0,0.6,0,1.1,0,1.5
				c0,0.4,0,0.8,0,1.2c0,0.4,0,0.8,0,1.1c0,0.4,0,0.8,0,1.2c0,0.4,0,0.8,0,1.2l-0.8,0.1l-0.1,0c-0.1-0.2-0.3-0.4-0.5-0.7
				c-0.2-0.3-0.4-0.6-0.7-1c-0.2-0.4-0.5-0.8-0.8-1.3c-0.3-0.5-0.6-0.9-0.9-1.4c-0.3-0.5-0.6-1-0.9-1.5c-0.3-0.5-0.6-1-0.9-1.5
				c-0.3-0.5-0.6-1-0.9-1.5c-0.3-0.5-0.6-0.9-0.8-1.4c-0.3-0.4-0.5-0.8-0.7-1.2c-0.2-0.4-0.4-0.7-0.5-0.9c0,0.9,0,1.9,0,2.7
				c0,0.9,0,1.7-0.1,2.6c0,0.8-0.1,1.6-0.1,2.3c0,0.7-0.1,1.4-0.1,2.1c0,0.4-0.1,0.8-0.1,1.1c0,0.3-0.1,0.6-0.1,0.8
				c0,0.2-0.1,0.4-0.2,0.5c-0.1,0.1-0.1,0.2-0.2,0.3s-0.2,0.1-0.4,0.1c-0.1,0-0.3,0-0.5,0h-0.2c0,0-0.1,0-0.1,0c-0.1,0-0.1,0-0.2,0
				l-0.1-0.1c0.2-0.4,0.3-0.9,0.5-1.4c0.1-0.5,0.3-1.1,0.4-1.6c0.1-0.6,0.2-1.2,0.3-1.8c0.1-0.6,0.1-1.2,0.2-1.8
				c0.1-0.6,0.1-1.2,0.1-1.8c0-0.6,0.1-1.2,0.1-1.7c0-0.5,0-1,0-1.5c0-0.5,0-0.9,0-1.2c0-0.2,0-0.3,0-0.5c0-0.1-0.1-0.2-0.2-0.3
				c-0.1-0.1-0.2-0.1-0.3-0.2c-0.1,0-0.3-0.1-0.5-0.1c-0.1,0-0.3,0-0.5,0c-0.2,0-0.4,0-0.6,0.1l-0.1-0.6c0.4-0.1,0.7-0.2,1-0.2
				c0.3-0.1,0.6-0.1,0.8-0.2c0.2,0,0.4-0.1,0.6-0.1c0.2,0,0.4,0,0.5,0c0.2,0,0.3,0,0.4,0.1c0.1,0,0.2,0.1,0.3,0.2
				c0.1,0.1,0.2,0.2,0.3,0.3C104.8,30.2,104.9,30.4,105.1,30.6z"/>
			<path class="st0" d="M122.5,29.2c0.6,0,1.1,0.1,1.5,0.2c0.5,0.1,0.9,0.2,1.2,0.4c0.3,0.1,0.6,0.3,0.8,0.5
				c0.2,0.2,0.3,0.3,0.3,0.5c0,0.3,0,0.7,0,1.1c0,0.5,0,1-0.1,1.7l-0.6,0c0-0.1,0-0.1,0-0.2c0-0.1,0-0.1,0-0.2c0-0.3,0-0.6-0.1-0.8
				c-0.1-0.3-0.2-0.5-0.3-0.8c-0.2-0.2-0.4-0.5-0.6-0.6c-0.2-0.2-0.5-0.3-0.8-0.5c-0.3-0.1-0.6-0.2-0.9-0.3c-0.3-0.1-0.6-0.1-1-0.1
				c-0.6,0-1.1,0.1-1.6,0.3c-0.5,0.2-0.9,0.4-1.2,0.7c-0.4,0.3-0.7,0.7-1,1.1c-0.3,0.4-0.5,0.9-0.7,1.4c-0.2,0.5-0.3,1-0.4,1.6
				c-0.1,0.6-0.1,1.1-0.1,1.7c0,0.7,0.1,1.3,0.2,1.9c0.1,0.6,0.3,1.1,0.5,1.6c0.2,0.5,0.5,0.9,0.7,1.3c0.3,0.4,0.6,0.7,1,1
				c0.4,0.3,0.7,0.5,1.2,0.6c0.4,0.1,0.9,0.2,1.3,0.2c0.3,0,0.7,0,1-0.1c0.3-0.1,0.7-0.2,1-0.3c0.4-0.2,0.7-0.3,1.1-0.6
				c0.4-0.2,0.7-0.5,1.1-0.8c0,0,0.1,0,0.1,0.1c0,0,0.1,0.1,0.1,0.1c0,0,0.1,0.1,0.1,0.1c0,0,0,0.1,0,0.1c0,0,0,0.1-0.1,0.1
				c-0.4,0.5-0.8,0.8-1.3,1.2c-0.4,0.3-0.9,0.6-1.3,0.8c-0.4,0.2-0.9,0.3-1.3,0.4c-0.4,0.1-0.9,0.1-1.3,0.1c-0.6,0-1.1-0.1-1.6-0.2
				c-0.5-0.2-1-0.4-1.5-0.7c-0.4-0.3-0.9-0.7-1.2-1.1c-0.4-0.4-0.7-0.9-0.9-1.4c-0.3-0.5-0.5-1.1-0.6-1.7c-0.1-0.6-0.2-1.3-0.2-2
				c0-0.7,0.1-1.3,0.2-2c0.1-0.7,0.3-1.3,0.6-1.9c0.3-0.6,0.6-1.2,1-1.7c0.4-0.5,0.9-1,1.4-1.4c0.5-0.4,1.1-0.7,1.8-0.9
				C120.9,29.3,121.7,29.2,122.5,29.2z"/>
			<path class="st0" d="M129.4,31.5c0-0.2,0-0.3,0-0.5c0-0.1-0.1-0.2-0.2-0.3c-0.1-0.1-0.2-0.1-0.3-0.2c-0.1,0-0.3-0.1-0.5-0.1
				c-0.1,0-0.3,0-0.5,0c-0.2,0-0.4,0-0.6,0.1l-0.1-0.6c0.4-0.1,0.8-0.1,1.2-0.2c0.4,0,0.7-0.1,1-0.1c0.3,0,0.6-0.1,0.9-0.1
				c0.3,0,0.5,0,0.8,0c0.7,0,1.3,0,1.9,0c0.6,0,1.1,0,1.6,0c0.5,0,0.8,0,1.1,0c0.3,0,0.5,0,0.6,0c0.2,0,0.3,0,0.4,0.1
				c0.1,0.1,0.2,0.2,0.2,0.4c0,0.1,0,0.2,0,0.4c0,0.2,0,0.5-0.1,0.8c0,0.3-0.1,0.6-0.1,0.9c0,0.3-0.1,0.6-0.1,0.9l-0.6,0
				c0-0.2,0-0.3,0-0.5c0-0.1,0-0.3,0-0.4c0-0.4,0-0.6-0.1-0.9c0-0.2-0.1-0.4-0.2-0.5c-0.1-0.1-0.3-0.2-0.5-0.3
				c-0.2,0-0.4-0.1-0.7-0.1c-0.4,0-0.8,0-1.1,0c-0.3,0-0.6,0-0.9,0h-0.3c-0.2,0-0.3,0-0.5,0c-0.2,0-0.4,0-0.6,0c0,0.4,0,0.7,0,1.2
				c0,0.4,0,0.9,0,1.4c0,0.5,0,1,0,1.6c0,0.6,0,1.1,0,1.7c0.5,0,1,0,1.5,0.1c0.4,0,0.8,0,1.2,0c0.4,0,0.8,0,1.2,0
				c0.3,0,0.7-0.1,1-0.1c0.1,0.2,0.1,0.4,0.1,0.5c0,0.1,0,0.2-0.1,0.3c-0.1,0.1-0.2,0.2-0.3,0.2c-0.1,0.1-0.3,0.1-0.5,0.1
				c-0.2,0-0.4,0-0.7,0c-0.4,0-0.9,0-1.5-0.1c-0.6,0-1.1-0.1-1.8-0.2c0,0.2,0,0.5,0,0.9c0,0.3,0,0.7,0,1.1c0,0.4,0,0.8-0.1,1.2
				c0,0.4,0,0.8-0.1,1.2c0,0.4,0,0.7-0.1,1c0,0.3-0.1,0.6-0.1,0.8c0.4-0.1,0.8-0.1,1.2-0.1c0.4,0,0.7,0,1.1,0c0.4,0,0.9,0,1.3,0
				c0.4,0,0.8,0,1.2,0c0.3,0,0.5,0,0.7-0.1c0.2-0.1,0.4-0.2,0.5-0.4c0.1-0.2,0.3-0.4,0.4-0.7c0.1-0.3,0.2-0.7,0.2-1.2l0.6,0
				c0,0.7-0.1,1.3-0.2,1.8c-0.1,0.5-0.2,0.8-0.4,1.1c-0.2,0.3-0.4,0.5-0.6,0.6c-0.2,0.1-0.5,0.2-0.8,0.2c-0.2,0-0.5,0-0.8-0.1
				c-0.3,0-0.6-0.1-0.9-0.1c-0.3-0.1-0.7-0.1-1.1-0.1c-0.4,0-0.8-0.1-1.2-0.1c-0.4,0-0.8,0-1.3,0.1c-0.5,0-0.9,0.1-1.4,0.2l-0.1,0
				c0.1-0.4,0.1-0.9,0.2-1.5c0-0.6,0.1-1.3,0.1-2c0-0.7,0.1-1.5,0.1-2.3c0-0.8,0-1.6,0.1-2.4c0-0.8,0-1.6,0-2.4
				C129.4,32.9,129.4,32.2,129.4,31.5z"/>
		</g>
		<path class="st0" d="M96.8,57.5c-13.8,0-28.6-3.2-45.5-9.7l0.1-0.3c22.5,8.7,41.3,11.5,59,8.6c4.6-0.7,8.5-1.7,12.3-2.5
			c9.6-2.3,17.2-4,28.6-0.8l-0.1,0.3c-11.3-3.2-18.8-1.4-28.4,0.8c-3.8,0.9-7.7,1.8-12.3,2.5C106,57.1,101.5,57.5,96.8,57.5z"/>
		<path class="st0" d="M90.3,55.1c-13.8,0-28.6-3.2-45.5-9.7l0.1-0.3c22.6,8.7,41.3,11.5,59,8.6c4.6-0.7,8.5-1.7,12.3-2.5
			c9.6-2.3,17.2-4,28.6-0.8l-0.1,0.3c-11.3-3.2-18.8-1.4-28.4,0.8c-3.8,0.9-7.7,1.8-12.3,2.5C99.5,54.7,94.9,55.1,90.3,55.1z"/>
	</g>
	<g>
		<path class="st2" d="M96.3,62.6c-0.1,0.2-0.3,0.9-0.4,1.1l-3.5-0.2l0-0.2c0.7,0,0.7-0.1,0.7-0.6l0.2-2.8c0-0.6,0-0.7-0.6-0.7
			l0-0.2l2.2,0.1c0.7,0,0.9,0,1,0c0,0.2,0,0.7,0,1.1l-0.2,0c0-0.2-0.1-0.4-0.2-0.6c-0.1-0.2-0.2-0.3-0.7-0.3l-0.6,0
			c-0.2,0-0.2,0-0.3,0.2L94,61.1l0.8,0c0.5,0,0.6-0.1,0.7-0.6l0.2,0l-0.1,1.5l-0.2,0c-0.1-0.5-0.1-0.6-0.6-0.6l-0.8,0l-0.1,1.4
			c0,0.5,0.1,0.6,0.5,0.6l0.6,0c0.4,0,0.5,0,0.7-0.2c0.2-0.1,0.3-0.4,0.4-0.6L96.3,62.6z"/>
		<path class="st2" d="M98.3,63.8l0-0.2c0.3,0,0.4-0.1,0.2-0.3L98,62.5c-0.2,0.2-0.3,0.5-0.4,0.7c-0.1,0.2-0.1,0.3,0.2,0.4l0,0.2
			l-1.3,0l0-0.2c0.4-0.1,0.5-0.1,0.8-0.4c0.2-0.3,0.4-0.5,0.6-0.8l-0.6-1C97,61,97,60.9,96.6,60.9l0-0.2l1.5,0l0,0.2
			c-0.3,0-0.3,0.1-0.2,0.3l0.4,0.6c0.1-0.2,0.3-0.4,0.4-0.6c0.1-0.2,0.1-0.2-0.2-0.3l0-0.2l1.3,0l0,0.2c-0.4,0-0.5,0.1-0.8,0.4
			c-0.1,0.1-0.3,0.4-0.5,0.7l0.7,1c0.3,0.4,0.4,0.5,0.8,0.5l0,0.2L98.3,63.8z"/>
		<path class="st2" d="M102.7,63c-0.3,0.4-0.8,0.8-1.2,0.8c-0.9,0-1.5-0.7-1.5-1.4c0-0.6,0.2-1,0.7-1.4c0.4-0.3,0.8-0.4,1.1-0.5
			c0.3,0,0.5,0.1,0.7,0.2c0.1,0.1,0.1,0.1,0.1,0.2c0,0.2-0.2,0.3-0.2,0.3c0,0-0.1,0-0.1-0.1c-0.2-0.2-0.5-0.3-0.7-0.3
			c-0.4,0-0.8,0.4-0.8,1.1c0,1,0.7,1.3,1.1,1.2c0.3,0,0.5-0.1,0.8-0.4L102.7,63z"/>
		<path class="st2" d="M105.2,63.4l0-0.2c0.4-0.1,0.4-0.1,0.4-0.6l-0.1-1.2c-0.1-0.6-0.3-0.8-0.7-0.8c-0.2,0-0.5,0.2-0.7,0.4
			l0.2,1.7c0,0.4,0.1,0.5,0.5,0.5l0,0.2l-1.6,0.2l0-0.2c0.4-0.1,0.5-0.1,0.4-0.6l-0.4-3.4c0-0.4-0.1-0.4-0.5-0.4l0-0.2
			c0.4-0.1,0.8-0.2,1.1-0.4c0,0.3,0.1,0.6,0.1,0.9l0.2,1.5c0.2-0.3,0.6-0.6,1-0.6c0.6-0.1,1,0.3,1.1,1.1l0.1,1.2
			c0,0.5,0.1,0.5,0.5,0.5l0,0.2L105.2,63.4z"/>
		<path class="st2" d="M109.5,62.9c-0.1,0-0.3,0-0.4-0.1c-0.1-0.1-0.2-0.2-0.2-0.3c-0.2,0.2-0.5,0.5-0.7,0.6c-0.5,0.1-0.9-0.3-1-0.7
			c-0.1-0.3,0.1-0.6,0.4-0.8c0.4-0.2,0.9-0.5,1-0.6l0-0.2c-0.1-0.5-0.4-0.7-0.7-0.6c-0.2,0-0.2,0.1-0.3,0.2
			c-0.1,0.1-0.1,0.3-0.1,0.5c0,0.1-0.1,0.2-0.2,0.2c-0.1,0-0.3-0.1-0.4-0.3c0-0.1,0.1-0.2,0.2-0.3c0.2-0.2,0.6-0.5,0.9-0.7
			c0.2,0,0.5,0,0.6,0.1c0.3,0.2,0.4,0.4,0.5,0.8c0.1,0.4,0.2,0.9,0.2,1.3c0.1,0.3,0.2,0.4,0.3,0.4c0.1,0,0.2-0.1,0.2-0.1l0.1,0.2
			L109.5,62.9z M108.7,61.2c-0.1,0.1-0.4,0.3-0.6,0.4c-0.2,0.2-0.4,0.3-0.3,0.6c0.1,0.4,0.4,0.5,0.6,0.5c0.2,0,0.4-0.2,0.5-0.3
			C108.8,62,108.7,61.5,108.7,61.2z"/>
		<path class="st2" d="M112.5,62.1l0-0.2c0.4-0.1,0.4-0.2,0.3-0.7l-0.3-1.1c-0.1-0.5-0.4-0.7-0.8-0.6c-0.3,0.1-0.5,0.3-0.6,0.5
			l0.4,1.6c0.1,0.5,0.2,0.5,0.5,0.4l0,0.2l-1.5,0.4l0-0.2c0.4-0.2,0.5-0.2,0.4-0.6l-0.3-1.4c-0.1-0.4-0.2-0.4-0.5-0.4l0-0.2
			c0.3-0.1,0.7-0.3,1-0.5c0,0.1,0.1,0.4,0.1,0.5c0.1-0.1,0.2-0.3,0.4-0.4c0.2-0.2,0.3-0.3,0.5-0.3c0.6-0.1,1,0.2,1.1,0.9l0.3,1.3
			c0.1,0.5,0.2,0.5,0.5,0.4l0,0.2L112.5,62.1z"/>
		<path class="st2" d="M115.5,60.3c-0.7,0.2-1.3-0.1-1.5-0.7c-0.2-0.8,0.4-1.3,0.9-1.5c0.2-0.1,0.5-0.1,0.7,0
			c0.3-0.1,0.7-0.2,0.9-0.3l0.1,0c0,0.1-0.1,0.3-0.2,0.4c-0.1,0-0.3,0.1-0.4,0.1c0.2,0.1,0.3,0.3,0.4,0.6
			C116.7,59.7,116.1,60.2,115.5,60.3z M115.2,60.4c-0.1,0.2-0.1,0.3-0.1,0.4c0,0.1,0.2,0.2,0.5,0.1c0.2-0.1,0.5-0.1,0.7-0.2
			c0.4-0.1,1-0.1,1.2,0.6c0.2,0.7-0.5,1.6-1.4,1.8c-0.8,0.2-1.3-0.1-1.4-0.5c0-0.2,0-0.3,0.1-0.4c0.1-0.2,0.3-0.4,0.4-0.6
			c-0.3,0-0.5-0.1-0.6-0.2c-0.1-0.1-0.2-0.2-0.2-0.3c0.2-0.2,0.4-0.4,0.5-0.6L115.2,60.4z M115,58.4c-0.3,0.1-0.5,0.4-0.3,1
			c0.1,0.5,0.5,0.8,0.9,0.7c0.3-0.1,0.5-0.4,0.3-1C115.7,58.6,115.4,58.3,115,58.4z M116,61.3c-0.3,0.1-0.5,0.2-0.6,0.3
			c-0.1,0.2-0.2,0.4-0.2,0.6c0.1,0.4,0.6,0.6,1.1,0.4c0.6-0.2,0.9-0.6,0.8-1c-0.1-0.2-0.2-0.4-0.4-0.4
			C116.5,61.2,116.2,61.3,116,61.3z"/>
		<path class="st2" d="M120.1,59.7c-0.3,0.7-0.8,0.9-1,0.9c-0.9,0.2-1.5-0.4-1.7-1.2c-0.1-0.5,0-1,0.2-1.3c0.2-0.4,0.6-0.6,0.9-0.7
			c0.6-0.1,1.2,0.3,1.3,0.9c0,0.1,0,0.2-0.1,0.3c-0.1,0.1-1,0.3-1.8,0.5c0.2,0.9,0.8,1.2,1.3,1.1c0.3-0.1,0.5-0.2,0.7-0.5
			L120.1,59.7z M118.5,57.7c-0.3,0.1-0.6,0.4-0.5,1c0.4-0.1,0.7-0.1,1.1-0.2c0.1,0,0.2-0.1,0.1-0.2
			C119.1,57.9,118.8,57.6,118.5,57.7z"/>
		<path class="st2" d="M123.4,55.2c0.5-0.1,0.9-0.1,1.2,0.1c0.3,0.2,0.6,0.5,0.6,0.9c0.2,1-0.6,1.6-1.3,1.7c-0.1,0-0.1,0-0.2,0
			l-0.5,0l0.2,1.1c0.1,0.6,0.2,0.6,0.8,0.5l0,0.2l-2,0.4l0-0.2c0.6-0.2,0.6-0.2,0.5-0.8l-0.5-2.7c-0.1-0.6-0.2-0.6-0.7-0.6l0-0.2
			L123.4,55.2z M123.2,57.6c0.1,0,0.3,0,0.5,0c0.4-0.1,1-0.4,0.8-1.3c-0.1-0.8-0.7-1-1.2-0.9c-0.2,0-0.3,0.1-0.4,0.1
			c0,0.1-0.1,0.1,0,0.3L123.2,57.6z"/>
		<path class="st2" d="M128.3,58.6l-1.6,0.5l-0.1-0.2c0.4-0.2,0.4-0.2,0.3-0.7l-0.5-1.4c-0.1-0.4-0.2-0.4-0.6-0.4l-0.1-0.2
			c0.3-0.2,0.6-0.3,0.9-0.6c0.1,0.2,0.2,0.5,0.2,0.7c0.1-0.4,0.3-0.9,0.6-1c0.2-0.1,0.4,0,0.5,0.2c0.1,0.2,0,0.4-0.1,0.5
			c-0.1,0.1-0.1,0.1-0.2,0c-0.1-0.1-0.2-0.1-0.4-0.1c-0.1,0-0.3,0.3-0.3,0.7l0.4,1.3c0.1,0.4,0.2,0.5,0.7,0.3L128.3,58.6z"/>
		<path class="st2" d="M129.9,54.8c0.9-0.2,1.7,0.3,1.9,1.1c0.3,1.1-0.4,1.8-1.1,2c-1,0.2-1.7-0.4-1.9-1.1
			C128.5,55.8,129.3,55,129.9,54.8z M129.9,55.1c-0.4,0.1-0.7,0.6-0.4,1.4c0.2,0.9,0.8,1.4,1.3,1.3c0.4-0.1,0.7-0.5,0.4-1.4
			C131,55.5,130.5,55,129.9,55.1z"/>
		<path class="st2" d="M133.8,56.3c-0.7,0.1-1.3-0.2-1.4-0.8c-0.1-0.8,0.5-1.3,1.1-1.4c0.2,0,0.5,0,0.7,0.1c0.3-0.1,0.7-0.2,0.9-0.3
			l0.1,0.1c0,0.1-0.1,0.3-0.2,0.4c-0.1,0-0.3,0-0.4,0c0.1,0.1,0.3,0.3,0.3,0.6C135,55.7,134.4,56.2,133.8,56.3z M133.4,56.3
			c-0.1,0.1-0.2,0.3-0.2,0.4c0,0.1,0.2,0.2,0.5,0.2c0.3,0,0.5-0.1,0.8-0.1c0.4-0.1,1,0,1.2,0.7c0.1,0.7-0.6,1.6-1.6,1.7
			c-0.8,0.1-1.3-0.2-1.4-0.6c0-0.2,0-0.3,0.1-0.4c0.1-0.2,0.3-0.4,0.5-0.6c-0.3,0-0.5-0.2-0.6-0.3c-0.1-0.1-0.1-0.2-0.1-0.3
			c0.3-0.2,0.5-0.4,0.6-0.6L133.4,56.3z M133.4,54.3c-0.3,0.1-0.5,0.4-0.4,0.9c0.1,0.5,0.4,0.9,0.8,0.8c0.3-0.1,0.5-0.4,0.4-0.9
			C134.1,54.6,133.8,54.2,133.4,54.3z M134.1,57.3c-0.3,0.1-0.5,0.1-0.6,0.3c-0.2,0.2-0.2,0.4-0.2,0.6c0.1,0.4,0.5,0.6,1,0.5
			c0.6-0.1,0.9-0.5,0.9-0.9c0-0.2-0.2-0.4-0.4-0.4C134.6,57.2,134.4,57.2,134.1,57.3z"/>
		<path class="st2" d="M137.5,56.8l-1.7,0.2l0-0.2c0.4-0.1,0.5-0.1,0.4-0.6l-0.1-1.5c0-0.4-0.1-0.5-0.5-0.5l0-0.2
			c0.4-0.1,0.7-0.2,1-0.4c0,0.2,0.1,0.5,0.1,0.8c0.2-0.4,0.5-0.8,0.8-0.8c0.3,0,0.4,0.1,0.4,0.3c0,0.2-0.1,0.4-0.2,0.4
			c-0.1,0-0.1,0-0.2,0c-0.1-0.1-0.2-0.2-0.3-0.2c-0.1,0-0.4,0.2-0.5,0.6l0.1,1.3c0,0.5,0.1,0.5,0.6,0.5L137.5,56.8z"/>
		<path class="st2" d="M140.7,56.7c-0.1,0-0.3-0.1-0.4-0.1c-0.1-0.1-0.1-0.2-0.2-0.3c-0.3,0.2-0.6,0.5-0.8,0.5
			c-0.5,0-0.9-0.4-0.9-0.9c0-0.4,0.2-0.6,0.6-0.7c0.4-0.2,1-0.3,1.1-0.5l0-0.2c0-0.5-0.2-0.7-0.6-0.7c-0.2,0-0.3,0.1-0.3,0.2
			c-0.1,0.1-0.1,0.3-0.2,0.5c0,0.1-0.1,0.2-0.2,0.2c-0.1,0-0.3-0.1-0.3-0.3c0-0.1,0.1-0.2,0.2-0.3c0.2-0.2,0.6-0.4,1-0.5
			c0.2,0,0.4,0.1,0.6,0.2c0.3,0.2,0.4,0.5,0.4,0.8c0,0.4,0,1,0,1.3c0,0.3,0.1,0.4,0.2,0.4c0.1,0,0.2,0,0.2-0.1l0.1,0.2L140.7,56.7z
			 M140.1,55c-0.1,0.1-0.4,0.2-0.6,0.3c-0.3,0.1-0.4,0.3-0.4,0.5c0,0.4,0.3,0.5,0.5,0.5c0.2,0,0.4-0.1,0.5-0.2
			C140.1,55.7,140.1,55.3,140.1,55z"/>
		<path class="st2" d="M145.3,57l0-0.2c0.4,0,0.4,0,0.5-0.5l0.1-1.2c0-0.5-0.1-0.8-0.5-0.8c-0.2,0-0.5,0.1-0.8,0.3
			c0,0.1,0,0.2,0,0.3l-0.1,1.4c0,0.4,0,0.5,0.4,0.6l0,0.2l-1.5-0.1l0-0.2c0.4,0,0.5,0,0.5-0.5l0.1-1.2c0-0.5-0.1-0.8-0.5-0.8
			c-0.3,0-0.5,0.1-0.8,0.3l-0.2,1.7c0,0.5,0,0.5,0.4,0.6l0,0.2l-1.5-0.1l0-0.2c0.5,0,0.5,0,0.5-0.5l0.1-1.5c0-0.4,0-0.5-0.4-0.6
			l0-0.2c0.3,0,0.7-0.1,1-0.2c0,0.2,0,0.4-0.1,0.6c0.2-0.1,0.3-0.2,0.5-0.3c0.2-0.1,0.4-0.2,0.6-0.1c0.3,0,0.6,0.3,0.7,0.6
			c0.2-0.1,0.4-0.2,0.6-0.3c0.2-0.1,0.4-0.2,0.6-0.1c0.6,0.1,0.9,0.5,0.8,1.2l-0.1,1.4c0,0.5,0,0.5,0.4,0.6l0,0.2L145.3,57z"/>
	</g>
</g>
</svg>
